<svg aria-hidden="true" style="position: absolute; width: 0; height: 0; overflow: hidden;" version="1.1" xmlns="http://www.w3.org/2000/svg" xmlns:xlink="http://www.w3.org/1999/xlink">
<defs>
<symbol id="icon-phone" viewBox="0 0 32 32">
<path d="M22 20c-2 2-2 4-4 4s-4-2-6-4-4-4-4-6 2-2 4-4-4-8-6-8-6 6-6 6c0 4 4.109 12.109 8 16s12 8 16 8c0 0 6-4 6-6s-6-8-8-6z"></path>
</symbol>
<symbol id="icon-telegram" viewBox="0 0 32 32">
<path d="M16 0c-8.838 0-16 7.162-16 16s7.162 16 16 16 16-7.163 16-16-7.163-16-16-16zM23.863 10.969l-2.625 12.369c-0.181 0.881-0.712 1.087-1.45 0.681l-4-2.956-1.919 1.869c-0.225 0.219-0.4 0.4-0.8 0.4-0.519 0-0.431-0.194-0.606-0.688l-1.363-4.475-3.956-1.231c-0.856-0.262-0.862-0.85 0.194-1.269l15.412-5.95c0.7-0.319 1.381 0.169 1.113 1.25z"></path>
</symbol>
<symbol viewBox="0 0 32 32"><g id="_08_mail-01" data-name="08 mail-01"><path d="M26,6H6A3,3,0,0,0,3,9V23a3,3,0,0,0,3,3H26a3,3,0,0,0,3-3V9A3,3,0,0,0,26,6ZM6,8H26a1,1,0,0,1,1,1v.46l-10.45,7a1,1,0,0,1-1.1,0L5,9.46V9A1,1,0,0,1,6,8ZM26,24H6a1,1,0,0,1-1-1V11.87l9.34,6.22a3,3,0,0,0,3.32,0L27,11.87V23A1,1,0,0,1,26,24Z"/></g></symbol>
<symbol xmlns="http://www.w3.org/2000/svg" viewBox="0 0 32 32"><g id="_27_phone-call" data-name="27 phone-call"><path d="M21.83,29a5.46,5.46,0,0,1-.58,0A18.5,18.5,0,0,1,8.53,23.47,18.62,18.62,0,0,1,3.05,10.66a4.91,4.91,0,0,1,0-1A5.55,5.55,0,0,1,4.68,6.21a5.61,5.61,0,0,1,4-1.65,5.43,5.43,0,0,1,1.22.14l.66.15,1.34,8.46a2,2,0,0,1-1.25,2.18,4.75,4.75,0,0,1-.57.18,13.07,13.07,0,0,0,2.59,3.67,12.74,12.74,0,0,0,3.68,2.58,3.86,3.86,0,0,1,.17-.55,2,2,0,0,1,2.18-1.26l8.46,1.33.15.67a5.43,5.43,0,0,1,.13,1.22A5.67,5.67,0,0,1,22.34,29ZM8.67,6.56A3.65,3.65,0,0,0,5,9.86a4,4,0,0,0,0,.7A16.71,16.71,0,0,0,21.38,27a4.21,4.21,0,0,0,.79,0,3.59,3.59,0,0,0,2.2-1.05,3.55,3.55,0,0,0,1.06-2.57V23.2l-7-1.12a2.72,2.72,0,0,0-.11.34,2,2,0,0,1-1.08,1.31,2,2,0,0,1-1.69,0A14.93,14.93,0,0,1,8.26,16.5a2,2,0,0,1,0-1.69,2,2,0,0,1,1.3-1.08l.36-.11-1.13-7Z"/><path d="M29,16H27A11,11,0,0,0,16,5V3A13,13,0,0,1,29,16Z"/><path d="M23,16H21a5,5,0,0,0-5-5V9A7,7,0,0,1,23,16Z"/></g></symbol>
<symbol enable-background="new 0 0 32 32" height="32px" version="1.1" viewBox="0 0 32 32" width="32px" xml:space="preserve" xmlns="http://www.w3.org/2000/svg" xmlns:xlink="http://www.w3.org/1999/xlink"><g id="telegram"><g><path d="M12.408,28.188c-0.865,0-0.717-0.327-1.016-1.148l-2.54-8.362L28.408,7.076L12.408,28.188z"/><path d="M12.408,28.188c0.667,0,0.962-0.305,1.333-0.667l3.556-3.458l-4.436-2.674L12.408,28.188z"/><path d="M12.861,21.391l10.747,7.94c1.228,0.676,2.111,0.326,2.417-1.139L30.4,7.577    c0.448-1.796-0.684-2.61-1.858-2.078L2.854,15.405c-1.754,0.703-1.742,1.682-0.32,2.117l6.592,2.058l15.261-9.628    c0.721-0.437,1.382-0.202,0.84,0.28L12.861,21.391z"/><path d="M24.687,30.163c-0.402,0-0.843-0.132-1.32-0.395l-10.803-7.976c-0.121-0.089-0.195-0.228-0.203-0.378    c-0.007-0.15,0.053-0.295,0.165-0.396L25.322,9.503c0.205-0.185,0.521-0.169,0.706,0.037c0.185,0.205,0.168,0.521-0.037,0.706    l-12.34,11.106l10.254,7.576c0.271,0.145,0.729,0.329,1.055,0.178c0.332-0.152,0.496-0.637,0.576-1.017l4.375-20.617    c0.17-0.681,0.088-1.229-0.215-1.481c-0.231-0.192-0.575-0.206-0.947-0.038L3.033,15.871C2.244,16.188,1.996,16.514,2,16.622    c0.003,0.071,0.173,0.267,0.68,0.422l6.375,1.99l6.999-4.416c0.234-0.146,0.542-0.077,0.689,0.156    c0.147,0.233,0.078,0.542-0.156,0.689l-7.194,4.539C9.269,20.08,9.116,20.1,8.977,20.057l-6.592-2.058    c-1.17-0.358-1.37-0.99-1.384-1.335c-0.02-0.473,0.253-1.157,1.667-1.723l25.695-9.908c0.697-0.318,1.445-0.25,1.974,0.191    c0.613,0.511,0.813,1.413,0.549,2.474l-4.371,20.598c-0.184,0.878-0.566,1.457-1.137,1.719    C25.163,30.114,24.933,30.163,24.687,30.163z" fill="#000080"/></g><path d="M24.687,30.163c-0.402,0-0.843-0.132-1.32-0.395l-6.72-4.959c-0.222-0.164-0.27-0.478-0.105-0.699   c0.164-0.222,0.478-0.27,0.699-0.105l6.664,4.923c0.271,0.145,0.729,0.329,1.055,0.178c0.332-0.152,0.496-0.637,0.576-1.017   l4.375-20.617c0.17-0.681,0.088-1.229-0.215-1.481c-0.231-0.192-0.575-0.206-0.947-0.038L3.033,15.871   C2.244,16.188,1.996,16.514,2,16.622c0.003,0.071,0.173,0.267,0.68,0.422l6.594,2.058c0.158,0.049,0.281,0.174,0.33,0.332   l2.267,7.461c0.061,0.167,0.108,0.333,0.149,0.477c0.032,0.114,0.072,0.256,0.099,0.298c-0.004-0.005,0.076,0.019,0.289,0.02   c0.447,0,0.617-0.167,0.957-0.498l1.66-1.614c0.198-0.194,0.514-0.188,0.707,0.01c0.192,0.198,0.188,0.515-0.01,0.707L14.09,27.88   c-0.402,0.393-0.828,0.809-1.682,0.809c-0.98,0-1.178-0.434-1.351-1.046c-0.035-0.124-0.075-0.267-0.135-0.432l-2.198-7.233   l-6.339-1.979c-1.17-0.358-1.37-0.99-1.384-1.335c-0.02-0.473,0.253-1.157,1.667-1.723l25.695-9.908   c0.697-0.318,1.445-0.25,1.974,0.191c0.613,0.511,0.813,1.413,0.549,2.474l-4.371,20.598c-0.184,0.878-0.566,1.457-1.137,1.719   C25.163,30.114,24.933,30.163,24.687,30.163z" fill="#000080"/><g><g><g><g><g><g><path d="M18.5,14c0,0.275-0.225,0.5-0.5,0.5l0,0c-0.275,0-0.5-0.225-0.5-0.5l0,0c0-0.275,0.225-0.5,0.5-0.5         l0,0C18.275,13.5,18.5,13.725,18.5,14L18.5,14z" fill="#000080"/></g></g></g></g></g></g></g></symbol>
<symbol enable-background="new 0 0 512 512" id="Layer_1" version="1.1" viewBox="0 0 512 512" xml:space="preserve" xmlns="http://www.w3.org/2000/svg" xmlns:xlink="http://www.w3.org/1999/xlink"><g><path d="M258.6,507.2C120.3,507.7,6.5,392.6,9.9,251.7C13.1,117.8,124.1,7.1,262.1,8.7c136.7,1.6,249.5,115.4,246,255.8   C504.8,398,394.7,508,258.6,507.2z M230,387.7c-12.2-3.9-24.6-6.8-36-11.9c-23.2-10.4-37.9-28.4-42.6-53.7   c-3-16.4-1.8-32.9,0.2-49.3c1.8-14.5,6-28,17-38.5c0.8-0.8,0.9-3.1,0.4-4.3c-5.3-14.5-4.7-29-0.4-43.7c1.3-4.4,3.4-4.9,7.2-3.7   c10,3.1,18.1,9.1,25,16.7c3.7,4,7,8.4,10.5,12.6c20.8-13.5,80.3-13.5,102.1-0.2c4.2-4.9,8.2-10,12.7-14.7   c6.7-6.9,14.5-12.2,24-14.8c3.1-0.9,4.8-0.2,5.9,3.1c4.9,14.5,5.8,29,0,43.5c-1.1,2.9-1,4.8,1.3,7c6.9,6.6,11.1,14.9,13.3,24.2   c4.2,17.3,5.1,35,3.9,52.6c-1.3,18.9-8.4,35.5-22.3,48.8c-11.7,11.1-25.7,17.7-41.1,21.6c-5.6,1.4-11.2,2.4-17.2,3.6   c7.7,11.8,9.6,24.6,9.3,38c-0.3,14.3-0.1,28.7-0.1,43c0,1.7,0.1,3.5,0.2,5.3c91.3-16.6,183.5-107.5,173.4-233.4   C467.2,119.4,360.9,27.2,237.9,39C123,50,30.8,152.5,41.2,276.7c9.9,117.5,105.1,187.9,179.6,197.1c0-8.5,0-17,0-25.6   c-4.1,0.6-7.8,1.1-11.4,1.5c-26.8,3-48.1-9-60-32.9c-6.5-13.1-13.4-26.2-26.2-34.6c-1.4-0.9-2.2-2.6-3.4-4.1   c1.1-0.8,1.6-1.2,2.2-1.5c0.8-0.3,1.6-0.4,2.4-0.5c9-0.6,17.5,1,24.2,7.3c4.4,4.1,8.4,9,11.7,14.1c12.6,19.7,34.3,28,56.4,21.4   c3-0.9,4.7-2.2,5-5.7C222.3,403.8,224.9,394.9,230,387.7z"/></g></symbol>
<symbol data-name="icon-map" id="icon-map" viewBox="0 0 32 32" xmlns="http://www.w3.org/2000/svg"><title/><path d="M16,18a5,5,0,1,1,5-5A5.006,5.006,0,0,1,16,18Zm0-8a3,3,0,1,0,3,3A3,3,0,0,0,16,10Z"/><path d="M16,29C13.9,29,6,17.941,6,13a10,10,0,0,1,20,0C26,17.941,18.1,29,16,29ZM16,5a8.009,8.009,0,0,0-8,8c0,4.043,6.228,12.246,8,13.831,1.772-1.585,8-9.788,8-13.831A8.009,8.009,0,0,0,16,5Z"/></symbol></defs>
<symbol enable-background="new 0 0 512 512" id="in-icon" version="1.1" viewBox="0 0 512 512" xml:space="preserve" xmlns="http://www.w3.org/2000/svg" xmlns:xlink="http://www.w3.org/1999/xlink"><g><path d="M259,507.2C120.4,507.9,6.7,392.7,9.9,252.1c3-134,114.1-245,252.4-243.4c136.6,1.6,249.4,115.4,245.8,256   C504.7,398.1,394.7,507.8,259,507.2z M40.2,258.2C41.3,383.5,142.6,479.8,262.4,478c116.2-1.8,215.2-96.4,215.3-220   c0-125.2-102.1-222-222.2-220C139.1,39.9,41,134.7,40.2,258.2z"/><path d="M326.6,375.6c0-2.2,0-4.1,0-6.1c0-26.7,0.1-53.3-0.1-80c0-4.6-0.4-9.4-1.5-13.8c-3.6-14.8-15.6-22.2-32.9-20.8   c-12.8,1-24.3,12.4-25.2,25.6c-0.6,8-0.4,16-0.5,24c-0.1,21.7,0,43.3,0,65c0,2,0,3.9,0,6.2c-16.2,0-32,0-48.1,0   c0-52,0-104.1,0-156.4c15.7,0,31.4,0,47.7,0c0,6.1,0,12.3,0,19.8c1.7-2,2.7-3,3.4-4.2c21.6-32.4,80.2-28.9,97.6,9.3   c4.8,10.6,7.7,21.7,7.8,33.3c0.3,32.1,0.2,64.3,0.2,96.5c0,0.5-0.1,1-0.3,1.8C358.9,375.6,343,375.6,326.6,375.6z"/><path d="M187.5,375.8c-16.1,0-31.7,0-47.7,0c0-51.9,0-103.6,0-155.6c15.9,0,31.6,0,47.7,0C187.5,271.9,187.5,323.6,187.5,375.8z"/><path d="M162.2,189c-14.3-0.1-24.3-10.5-24.2-24.9s10.5-24.3,25.4-24.2c14.2,0.1,24.5,10.6,24.3,24.9   C187.7,179,177,189.1,162.2,189z"/></g></symbol>
</svg>